<?xml version="1.0" encoding="UTF-8" standalone="no"?>
<!-- Created with Inkscape (http://www.inkscape.org/) -->

<svg
   width="65mm"
   height="65mm"
   viewBox="0 0 65 65"
   version="1.1"
   id="svg1"
   inkscape:version="1.4 (e7c3feb, 2024-10-09)"
   sodipodi:docname="White_Queen.svg"
   xmlns:inkscape="http://www.inkscape.org/namespaces/inkscape"
   xmlns:sodipodi="http://sodipodi.sourceforge.net/DTD/sodipodi-0.dtd"
   xmlns="http://www.w3.org/2000/svg"
   xmlns:svg="http://www.w3.org/2000/svg">
  <sodipodi:namedview
     id="namedview1"
     pagecolor="#ffffff"
     bordercolor="#000000"
     borderopacity="0.25"
     inkscape:showpageshadow="2"
     inkscape:pageopacity="0.0"
     inkscape:pagecheckerboard="0"
     inkscape:deskcolor="#d1d1d1"
     inkscape:document-units="mm"
     inkscape:zoom="0.7180275"
     inkscape:cx="395.52803"
     inkscape:cy="561.25984"
     inkscape:window-width="1850"
     inkscape:window-height="1011"
     inkscape:window-x="0"
     inkscape:window-y="0"
     inkscape:window-maximized="1"
     inkscape:current-layer="layer1" />
  <defs
     id="defs1" />
  <g
     inkscape:label="Layer 1"
     inkscape:groupmode="layer"
     id="layer1">
    <g
       style="fill:#ffffff;fill-opacity:1;fill-rule:evenodd;stroke:#000000;stroke-width:1.5;stroke-linecap:round;stroke-linejoin:round;stroke-miterlimit:4;stroke-dasharray:none;stroke-opacity:1"
       transform="matrix(1.5815593,0,0,1.5815593,-2.4766578,-3.231411)"
       id="g16">
      <path
         d="m 9,13 a 2,2 0 1 1 -4,0 2,2 0 1 1 4,0 z"
         transform="translate(-1,-1)"
         id="path8" />
      <path
         d="m 9,13 a 2,2 0 1 1 -4,0 2,2 0 1 1 4,0 z"
         transform="translate(15.5,-5.5)"
         id="path9" />
      <path
         d="m 9,13 a 2,2 0 1 1 -4,0 2,2 0 1 1 4,0 z"
         transform="translate(32,-1)"
         id="path10" />
      <path
         d="m 9,13 a 2,2 0 1 1 -4,0 2,2 0 1 1 4,0 z"
         transform="translate(7,-4.5)"
         id="path11" />
      <path
         d="m 9,13 a 2,2 0 1 1 -4,0 2,2 0 1 1 4,0 z"
         transform="translate(24,-4)"
         id="path12" />
      <path
         d="m 9,26 c 8.5,-1.5 21,-1.5 27,0 L 38,14 31,25 V 11 l -5.5,13.5 -3,-15 -3,15 -5.5,-14 V 25 L 7,14 Z"
         style="stroke-linecap:butt"
         id="path13" />
      <path
         d="m 9,26 c 0,2 1.5,2 2.5,4 1,1.5 1,1 0.5,3.5 -1.5,1 -1.5,2.5 -1.5,2.5 -1.5,1.5 0.5,2.5 0.5,2.5 6.5,1 16.5,1 23,0 0,0 1.5,-1 0,-2.5 0,0 0.5,-1.5 -1,-2.5 -0.5,-2.5 -0.5,-2 0.5,-3.5 1,-2 2.5,-2 2.5,-4 -8.5,-1.5 -18.5,-1.5 -27,0 z"
         style="stroke-linecap:butt"
         id="path14" />
      <path
         d="M 11.5,30 C 15,29 30,29 33.5,30"
         style="fill:none"
         id="path15" />
      <path
         d="m 12,33.5 c 6,-1 15,-1 21,0"
         style="fill:none"
         id="path16" />
    </g>
  </g>
</svg>
